HIERARCHY
ROOT pelvis
{
	OFFSET 0.003123 -0.351407 0.012037
	CHANNELS 6 Xposition Yposition Zposition Zrotation Yrotation Xrotation 
	JOINT left_hip
	{
		OFFSET 0.058189 -0.092763 -0.026001
		CHANNELS 3 Zrotation Yrotation Xrotation
		JOINT left_knee
		{
			OFFSET 0.054695 -0.378753 -0.009396
			CHANNELS 3 Zrotation Yrotation Xrotation
			JOINT left_ankle
			{
				OFFSET -0.043453 -0.403059 -0.031876
				CHANNELS 3 Zrotation Yrotation Xrotation
				JOINT left_foot
				{
					OFFSET 0.047257 -0.057997 0.118216
					CHANNELS 3 Zrotation Yrotation Xrotation
					End Site
					{
						OFFSET 0.000000 0.000000 0.000000
					}
				}
			}
		}
	}
	JOINT right_hip
	{
		OFFSET -0.063267 -0.103908 -0.021250
		CHANNELS 3 Zrotation Yrotation Xrotation
		JOINT right_knee
		{
			OFFSET -0.044210 -0.362380 -0.016824
			CHANNELS 3 Zrotation Yrotation Xrotation
			JOINT right_ankle
			{
				OFFSET 0.015417 -0.410728 -0.020192
				CHANNELS 3 Zrotation Yrotation Xrotation
				JOINT right_foot
				{
					OFFSET -0.038812 -0.058328 0.119049
					CHANNELS 3 Zrotation Yrotation Xrotation
					End Site
					{
						OFFSET 0.000000 0.000000 0.000000
					}
				}
			}
		}
	}
	JOINT spine_1
	{
		OFFSET -0.002763 0.109891 -0.027618
		CHANNELS 3 Zrotation Yrotation Xrotation
		JOINT spine_2
		{
			OFFSET 0.009448 0.131853 -0.005940
			CHANNELS 3 Zrotation Yrotation Xrotation
			JOINT spine_3
			{
				OFFSET -0.011330 0.052235 0.028447
				CHANNELS 3 Zrotation Yrotation Xrotation
				JOINT neck
				{
					OFFSET -0.012164 0.165167 -0.031615
					CHANNELS 3 Zrotation Yrotation Xrotation
					JOINT head
					{
						OFFSET 0.024783 0.160452 0.020737
						CHANNELS 3 Zrotation Yrotation Xrotation
						End Site
						{
							OFFSET 0.000000 0.000000 0.000000
						}
					}
				}
				JOINT left_collar
				{
					OFFSET 0.046364 0.084944 -0.007220
					CHANNELS 3 Zrotation Yrotation Xrotation
					JOINT left_shoulder
					{
						OFFSET 0.119239 0.057728 -0.015461
						CHANNELS 3 Zrotation Yrotation Xrotation
						JOINT left_elbow
						{
							OFFSET 0.254123 -0.072151 -0.042459
							CHANNELS 3 Zrotation Yrotation Xrotation
							JOINT left_wrist
							{
								OFFSET 0.251987 0.023221 -0.002472
								CHANNELS 3 Zrotation Yrotation Xrotation
								JOINT left_index_1
								{
									OFFSET 0.101902 -0.008688 0.019351
									CHANNELS 3 Zrotation Yrotation Xrotation
									JOINT left_index_2
									{
										OFFSET 0.030149 -0.011154 0.001151
										CHANNELS 3 Zrotation Yrotation Xrotation
										JOINT left_index_3
										{
											OFFSET 0.006504 -0.021577 -0.002433
											CHANNELS 3 Zrotation Yrotation Xrotation
											End Site
											{
												OFFSET 0.000000 0.000000 0.000000
											}
										}
									}
								}
								JOINT left_middle_1
								{
									OFFSET 0.109398 -0.006328 -0.003981
									CHANNELS 3 Zrotation Yrotation Xrotation
									JOINT left_middle_2
									{
										OFFSET 0.026472 -0.015218 -0.004641
										CHANNELS 3 Zrotation Yrotation Xrotation
										JOINT left_middle_3
										{
											OFFSET 0.005022 -0.023347 -0.001911
											CHANNELS 3 Zrotation Yrotation Xrotation
											End Site
											{
												OFFSET 0.000000 0.000000 0.000000
											}
										}
									}
								}
								JOINT left_pinky_1
								{
									OFFSET 0.084047 -0.014539 -0.043750
									CHANNELS 3 Zrotation Yrotation Xrotation
									JOINT left_pinky_2
									{
										OFFSET 0.012124 -0.014448 -0.005375
										CHANNELS 3 Zrotation Yrotation Xrotation
										JOINT left_pinky_3
										{
											OFFSET 0.003798 -0.018853 0.000167
											CHANNELS 3 Zrotation Yrotation Xrotation
											End Site
											{
												OFFSET 0.000000 0.000000 0.000000
											}
										}
									}
								}
								JOINT left_ring_1
								{
									OFFSET 0.097444 -0.009268 -0.027345
									CHANNELS 3 Zrotation Yrotation Xrotation
									JOINT left_ring_2
									{
										OFFSET 0.023561 -0.016057 -0.001895
										CHANNELS 3 Zrotation Yrotation Xrotation
										JOINT left_ring_3
										{
											OFFSET 0.004257 -0.023548 0.000814
											CHANNELS 3 Zrotation Yrotation Xrotation
											End Site
											{
												OFFSET 0.000000 0.000000 0.000000
											}
										}
									}
								}
								JOINT left_thumb_1
								{
									OFFSET 0.040636 -0.017977 0.025611
									CHANNELS 3 Zrotation Yrotation Xrotation
									JOINT left_thumb_2
									{
										OFFSET 0.021637 -0.017639 0.011623
										CHANNELS 3 Zrotation Yrotation Xrotation
										JOINT left_thumb_3
										{
											OFFSET 0.024002 -0.008356 0.006548
											CHANNELS 3 Zrotation Yrotation Xrotation
											End Site
											{
												OFFSET 0.000000 0.000000 0.000000
											}
										}
									}
								}
							}
						}
					}
				}
				JOINT right_collar
				{
					OFFSET -0.047695 0.084339 -0.013400
					CHANNELS 3 Zrotation Yrotation Xrotation
					JOINT right_shoulder
					{
						OFFSET -0.102578 0.053524 -0.012669
						CHANNELS 3 Zrotation Yrotation Xrotation
						JOINT right_elbow
						{
							OFFSET -0.271150 -0.036492 -0.026467
							CHANNELS 3 Zrotation Yrotation Xrotation
							JOINT right_wrist
							{
								OFFSET -0.249267 -0.004533 -0.015325
								CHANNELS 3 Zrotation Yrotation Xrotation
								JOINT right_index_1
								{
									OFFSET -0.099881 -0.011783 0.019600
									CHANNELS 3 Zrotation Yrotation Xrotation
									JOINT right_index_2
									{
										OFFSET -0.030148 -0.011154 0.001151
										CHANNELS 3 Zrotation Yrotation Xrotation
										JOINT right_index_3
										{
											OFFSET -0.006505 -0.021577 -0.002432
											CHANNELS 3 Zrotation Yrotation Xrotation
											End Site
											{
												OFFSET 0.000000 0.000000 0.000000
											}
										}
									}
								}
								JOINT right_middle_1
								{
									OFFSET -0.107376 -0.009422 -0.003734
									CHANNELS 3 Zrotation Yrotation Xrotation
									JOINT right_middle_2
									{
										OFFSET -0.026472 -0.015218 -0.004641
										CHANNELS 3 Zrotation Yrotation Xrotation
										JOINT right_middle_3
										{
											OFFSET -0.005022 -0.023347 -0.001911
											CHANNELS 3 Zrotation Yrotation Xrotation
											End Site
											{
												OFFSET 0.000000 0.000000 0.000000
											}
										}
									}
								}
								JOINT right_pinky_1
								{
									OFFSET -0.082027 -0.017634 -0.043503
									CHANNELS 3 Zrotation Yrotation Xrotation
									JOINT right_pinky_2
									{
										OFFSET -0.012123 -0.014448 -0.005374
										CHANNELS 3 Zrotation Yrotation Xrotation
										JOINT right_pinky_3
										{
											OFFSET -0.003798 -0.018852 0.000167
											CHANNELS 3 Zrotation Yrotation Xrotation
											End Site
											{
												OFFSET 0.000000 0.000000 0.000000
											}
										}
									}
								}
								JOINT right_ring_1
								{
									OFFSET -0.095423 -0.012362 -0.027099
									CHANNELS 3 Zrotation Yrotation Xrotation
									JOINT right_ring_2
									{
										OFFSET -0.023561 -0.016057 -0.001895
										CHANNELS 3 Zrotation Yrotation Xrotation
										JOINT right_ring_3
										{
											OFFSET -0.004257 -0.023548 0.000816
											CHANNELS 3 Zrotation Yrotation Xrotation
											End Site
											{
												OFFSET 0.000000 0.000000 0.000000
											}
										}
									}
								}
								JOINT right_thumb_1
								{
									OFFSET -0.038613 -0.021074 0.025861
									CHANNELS 3 Zrotation Yrotation Xrotation
									JOINT right_thumb_2
									{
										OFFSET -0.021636 -0.017639 0.011623
										CHANNELS 3 Zrotation Yrotation Xrotation
										JOINT right_thumb_3
										{
											OFFSET -0.024004 -0.008353 0.006547
											CHANNELS 3 Zrotation Yrotation Xrotation
											End Site
											{
												OFFSET 0.000000 0.000000 0.000000
											}
										}
									}
								}
							}
						}
					}
				}
			}
		}
	}
}
MOTION
Frames: 5
Frame Time: 0.050000
0.013689 0.928852 -0.085205 -0.737008 -0.372844 -6.629214 -0.166196 1.347784 9.167904 1.215050 0.027339 -1.069447 1.611203 -1.100492 -5.360554 0.000000 0.000000 0.000000 -0.118479 -0.552309 4.626583 5.887424 -0.250831 -3.239786 2.598121 7.174306 -2.169489 0.000000 0.000000 0.000000 -1.227121 -0.529565 7.484801 -4.832021 -0.740457 -13.085115 10.021429 -1.868277 22.062940 3.382862 0.243340 -4.832812 0.000000 0.000000 0.000000 0.756142 -0.861029 0.477649 -37.366870 -12.140210 -6.005268 1.085357 -19.721718 1.816836 1.671455 7.428294 -12.769983 -7.080701 6.865776 2.185486 -8.640956 -0.019680 -0.873235 0.000000 0.000000 0.000000 -7.796663 -5.233657 -3.617553 -34.737950 -6.947992 -12.009067 0.000000 0.000000 0.000000 13.633674 -13.322655 -19.410590 -30.466841 -15.089792 -23.471540 0.000000 0.000000 0.000000 -7.906626 -6.689415 -4.419542 -35.254516 -18.447778 -22.844954 0.000000 0.000000 0.000000 29.738735 26.617419 14.412844 -19.204362 -12.067116 2.278477 0.000000 0.000000 0.000000 3.028069 -4.070648 -2.616909 38.281280 4.569782 -3.994457 0.762825 17.359979 -0.247615 3.747069 -0.143914 -0.923131 28.604596 -9.143880 2.056268 35.578663 -18.048887 18.849730 0.000000 0.000000 0.000000 34.568657 -6.141077 -3.824873 39.486222 -1.246063 -3.737351 0.000000 0.000000 0.000000 5.232618 7.376441 -10.819064 44.505898 9.426067 -13.467223 0.000000 0.000000 0.000000 30.388254 1.578635 -2.679994 41.497565 6.953815 -8.435520 0.000000 0.000000 0.000000 -10.838522 -30.259893 28.532930 2.432071 18.377892 -5.116032 0.000000 0.000000 0.000000 
0.018253 0.934977 -0.074646 1.577338 1.623894 -9.068305 -2.078846 1.205742 7.259175 -0.178594 -0.881971 8.214856 0.986134 -2.025926 -4.661070 0.000000 0.000000 0.000000 1.504721 -0.565819 3.913207 -2.198553 0.375490 4.500359 0.333313 5.162346 -6.055873 0.000000 0.000000 0.000000 -6.395888 -0.589143 12.501681 -4.878395 -1.196418 -15.398227 12.941150 -1.215384 24.834587 5.396723 0.387759 -6.949342 0.000000 0.000000 0.000000 2.515222 0.412993 0.054114 -39.619842 -17.518399 -6.201164 -1.248416 -19.235473 2.126062 -5.803170 8.424333 -10.600953 -32.472970 27.728719 3.277233 -55.533243 3.970925 -0.303919 0.000000 0.000000 0.000000 -54.761647 2.435716 -5.569168 -31.591303 -5.972426 -13.690131 0.000000 0.000000 0.000000 -47.437083 -37.427623 -35.590709 -7.682012 1.954417 6.984322 0.000000 0.000000 0.000000 -61.434373 -20.618885 -3.217708 -14.586963 -6.297129 -14.176659 0.000000 0.000000 0.000000 8.002130 33.575906 26.752927 35.618468 -13.011896 -20.104399 0.000000 0.000000 0.000000 2.130741 -2.930998 -1.790732 42.951333 5.912217 -3.931578 -0.488360 15.802122 -0.269423 9.333742 -4.336096 -2.864996 47.237343 -45.233268 0.388092 32.916067 -6.634003 4.474029 0.000000 0.000000 0.000000 54.388510 -19.339202 -5.680655 28.812379 -0.674763 -3.190009 0.000000 0.000000 0.000000 16.301196 15.549596 -22.977636 39.362823 5.530016 -8.429668 0.000000 0.000000 0.000000 45.603424 -1.040956 -2.229236 35.698389 8.703285 -11.184298 0.000000 0.000000 0.000000 -16.363816 -42.918914 49.434013 -22.096065 28.582113 -21.584875 0.000000 0.000000 0.000000 
0.016339 0.932720 -0.050888 3.102585 1.496145 -7.429959 -2.276162 1.038245 6.079525 -2.596207 -0.675616 9.954714 0.927745 -1.993757 -4.501236 0.000000 0.000000 0.000000 0.361802 -0.140362 1.045423 -2.742850 0.714775 9.343099 -1.010486 4.857455 -9.593170 0.000000 0.000000 0.000000 -6.090655 -0.573221 12.680412 -5.465498 -0.426123 -13.226686 11.350287 1.298532 22.994310 5.278223 0.421997 -6.783051 0.000000 0.000000 0.000000 1.261540 -2.991855 1.565931 -38.334506 -15.688018 -6.486793 -1.953085 -29.899624 3.438995 -13.285131 11.080699 -5.735588 -40.408595 31.178357 3.271546 -57.320155 0.171825 -5.708390 0.000000 0.000000 0.000000 -62.221517 8.396162 -7.999161 -29.475589 -9.697841 -21.132545 0.000000 0.000000 0.000000 -61.120018 -28.344274 -31.209146 -6.479535 -3.530216 -11.647950 0.000000 0.000000 0.000000 -66.403303 -17.780994 -5.327772 -12.011400 -7.795627 -19.446364 0.000000 0.000000 0.000000 5.841558 38.837803 41.722502 51.715162 -16.584910 -31.155121 0.000000 0.000000 0.000000 1.756217 -4.387437 -2.506911 47.216746 5.728540 -3.817417 0.572570 14.875412 -0.142129 12.271327 -1.335553 0.269029 49.142639 -59.352293 0.292081 39.497066 -3.632213 -3.329974 0.000000 0.000000 0.000000 58.309026 -31.773286 -6.259806 41.708529 0.473780 -7.309999 0.000000 0.000000 0.000000 23.658499 24.940842 -35.429464 66.184511 3.617081 -2.289529 0.000000 0.000000 0.000000 49.291167 -1.692950 -3.334416 52.960425 7.968163 -6.445047 0.000000 0.000000 0.000000 -15.022513 -45.376752 55.475163 -36.973153 22.393607 -26.782130 0.000000 0.000000 0.000000 
0.018842 0.929255 -0.058807 2.345619 1.970198 -5.516226 0.036486 0.777656 5.399076 -5.440478 -0.001923 6.535827 0.587766 -3.116694 -4.842342 0.000000 0.000000 0.000000 -0.321745 -0.032800 0.352656 -0.324437 0.247930 5.850880 -0.842685 4.554376 -8.833302 0.000000 0.000000 0.000000 -1.952670 -0.597001 9.548390 -6.993880 -0.132933 -14.600561 8.914317 -0.980575 24.722635 3.761350 0.014855 -3.816268 0.000000 0.000000 0.000000 -0.677105 -1.133281 0.493297 -40.999268 -12.263500 -6.693398 -0.129602 -32.798196 3.422629 -7.075230 4.020735 -2.809073 -19.236817 8.680797 2.508473 -37.894333 -0.208059 -5.611966 0.000000 0.000000 0.000000 -27.596100 -3.523775 -5.290557 -37.301243 -9.905748 -20.157564 0.000000 0.000000 0.000000 -2.610915 -21.195763 -30.425121 -37.938072 -18.138129 -27.349786 0.000000 0.000000 0.000000 -22.676747 -13.083057 -7.680353 -37.058768 -17.399017 -24.980134 0.000000 0.000000 0.000000 12.332230 21.568690 16.194161 -9.383359 -10.279511 -0.335633 0.000000 0.000000 0.000000 2.623960 -2.814010 -1.784683 48.362432 6.565894 -4.029651 0.619663 14.629178 -0.163575 10.852744 0.655980 4.848595 33.334158 -38.795725 6.033200 45.051962 -12.899733 4.631404 0.000000 0.000000 0.000000 50.208965 -16.971251 -6.247286 44.009058 -3.948109 -2.073551 0.000000 0.000000 0.000000 30.277969 23.290359 -30.915027 43.702820 2.138718 -1.477419 0.000000 0.000000 0.000000 48.586137 5.189921 -5.730332 45.081621 4.185780 -4.030155 0.000000 0.000000 0.000000 0.425562 -35.220311 37.094972 -29.826770 12.298234 -16.993893 0.000000 0.000000 0.000000 
0.008742 0.924662 -0.050888 1.497018 3.066163 -5.404579 1.593856 0.403197 3.370895 -5.264011 -0.335875 10.744359 1.512810 -3.314996 -7.101925 0.000000 0.000000 0.000000 -1.675360 0.066863 -0.186158 5.161784 -0.382081 7.623767 -1.603834 3.655598 -10.283197 0.000000 0.000000 0.000000 -0.503289 -0.560851 8.546744 -7.482529 -0.037669 -15.156098 9.284935 -2.113234 27.104149 3.500198 0.474864 -6.213600 0.000000 0.000000 0.000000 1.580598 -3.823149 1.961127 -46.860584 -10.153557 -7.367633 0.962328 -36.113087 3.547655 -1.997303 1.210721 -4.581951 -13.361419 2.700612 1.250980 2.625765 -0.674325 -1.733688 0.000000 0.000000 0.000000 -14.994264 -7.005595 -5.206776 -11.388962 -5.870206 -19.343389 0.000000 0.000000 0.000000 17.399163 -18.546087 -26.161239 -14.218410 -10.116494 -25.694310 0.000000 0.000000 0.000000 -9.077854 -11.839676 -7.667352 -17.550261 -12.979392 -29.659345 0.000000 0.000000 0.000000 18.984874 22.926784 15.065679 -18.011746 -11.775260 2.294684 0.000000 0.000000 0.000000 1.646500 -4.357200 -2.498682 50.219580 5.008179 -4.698538 2.231592 17.999344 -0.014287 11.177213 4.042593 6.163471 42.201118 -27.896865 2.035480 46.207502 -2.371370 -6.038062 0.000000 0.000000 0.000000 53.467834 -14.470874 -7.721689 36.861711 4.593594 -14.192964 0.000000 0.000000 0.000000 23.762396 40.047596 -47.838857 31.556846 -7.081965 16.114795 0.000000 0.000000 0.000000 51.013807 19.517724 -8.765716 34.801634 5.032874 -7.127006 0.000000 0.000000 0.000000 9.132951 -29.336961 30.385200 -36.994047 0.688923 -13.276656 0.000000 0.000000 0.000000 
